<svg xmlns="http://www.w3.org/2000/svg" width="60" height="60" viewBox="0 0 60 60">
  <path id="icons8-facebook_1_" data-name="icons8-facebook (1)" d="M14.077,6A8.087,8.087,0,0,0,6,14.077V57.923A8.087,8.087,0,0,0,14.077,66H57.923A8.087,8.087,0,0,0,66,57.923V14.077A8.087,8.087,0,0,0,57.923,6Zm0,2.308H57.923a5.769,5.769,0,0,1,5.769,5.769V57.923a5.769,5.769,0,0,1-5.769,5.769H45.114V48.661h6.819a1.156,1.156,0,0,0,1.14-.965l1.312-8.023a1.158,1.158,0,0,0-1.14-1.343H45.114V36.464c0-2.19.455-3.168,3.146-3.168h5.368a1.153,1.153,0,0,0,1.154-1.154V23.786a1.146,1.146,0,0,0-1.037-1.145c-1.717-.171-5.12-.487-6.716-.487-7.428,0-12.224,5.111-12.224,13.021V38.33H27.923a1.156,1.156,0,0,0-1.154,1.154v8.023a1.153,1.153,0,0,0,1.154,1.154H34.8V63.692H14.077a5.769,5.769,0,0,1-5.769-5.769V14.077A5.769,5.769,0,0,1,14.077,8.308Zm-1.154,4.615a1.153,1.153,0,0,0-1.154,1.154v2.308a1.154,1.154,0,1,0,2.308,0V14.077A1.153,1.153,0,0,0,12.923,12.923Zm5.769,0a1.153,1.153,0,0,0-1.154,1.154v2.308a1.154,1.154,0,1,0,2.308,0V14.077A1.153,1.153,0,0,0,18.692,12.923Zm5.769,0a1.153,1.153,0,0,0-1.154,1.154v2.308a1.154,1.154,0,1,0,2.308,0V14.077A1.153,1.153,0,0,0,24.462,12.923Zm5.769,0a1.153,1.153,0,0,0-1.154,1.154v2.308a1.154,1.154,0,0,0,2.308,0V14.077A1.153,1.153,0,0,0,30.231,12.923Zm5.769,0a1.153,1.153,0,0,0-1.154,1.154v2.308a1.154,1.154,0,0,0,2.308,0V14.077A1.153,1.153,0,0,0,36,12.923Zm5.769,0a1.153,1.153,0,0,0-1.154,1.154v2.308a1.154,1.154,0,0,0,2.308,0V14.077A1.153,1.153,0,0,0,41.769,12.923Zm5.769,0a1.153,1.153,0,0,0-1.154,1.154v2.308a1.154,1.154,0,1,0,2.308,0V14.077A1.153,1.153,0,0,0,47.538,12.923Zm5.769,0a1.153,1.153,0,0,0-1.154,1.154v2.308a1.154,1.154,0,1,0,2.308,0V14.077A1.153,1.153,0,0,0,53.308,12.923Zm5.769,0a1.153,1.153,0,0,0-1.154,1.154v2.308a1.154,1.154,0,1,0,2.308,0V14.077A1.153,1.153,0,0,0,59.077,12.923ZM47.029,24.462a49.075,49.075,0,0,1,5.445.311v6.216h-4.21c-4.89,0-5.454,3.123-5.454,5.476v4.174h9.078l-.937,5.715H42.806V63.692h-5.7V46.353H29.077V40.638h8.036V35.175C37.113,28.469,40.818,24.462,47.029,24.462Z" transform="translate(-6 -6)" fill="#26e07f"/>
</svg>
