<svg xmlns="http://www.w3.org/2000/svg" width="60" height="60" viewBox="0 0 60 60">
  <path id="icons8-instagram_1_" data-name="icons8-instagram (1)" d="M14.077,6A8.087,8.087,0,0,0,6,14.077V57.923A8.087,8.087,0,0,0,14.077,66H57.923A8.087,8.087,0,0,0,66,57.923V14.077A8.087,8.087,0,0,0,57.923,6Zm0,2.308H57.923a5.775,5.775,0,0,1,5.769,5.769V57.923a5.775,5.775,0,0,1-5.769,5.769H14.077a5.775,5.775,0,0,1-5.769-5.769V14.077A5.775,5.775,0,0,1,14.077,8.308Zm40.385,5.769a3.462,3.462,0,1,0,3.462,3.462A3.468,3.468,0,0,0,54.462,14.077Zm0,1.767a1.695,1.695,0,1,1-1.695,1.695A1.7,1.7,0,0,1,54.462,15.844ZM36,19.846A16.154,16.154,0,1,0,52.154,36,16.174,16.174,0,0,0,36,19.846Zm0,2.308A13.846,13.846,0,1,1,22.154,36,13.861,13.861,0,0,1,36,22.154Zm0,2.308A11.538,11.538,0,1,0,47.538,36,11.549,11.549,0,0,0,36,24.462Zm0,2.308A9.231,9.231,0,1,1,26.769,36,9.243,9.243,0,0,1,36,26.769ZM12.923,55.615a1.156,1.156,0,0,0-1.154,1.154v2.308a1.154,1.154,0,1,0,2.308,0V56.769A1.156,1.156,0,0,0,12.923,55.615Zm5.769,0a1.156,1.156,0,0,0-1.154,1.154v2.308a1.154,1.154,0,1,0,2.308,0V56.769A1.156,1.156,0,0,0,18.692,55.615Zm5.769,0a1.156,1.156,0,0,0-1.154,1.154v2.308a1.154,1.154,0,0,0,2.308,0V56.769A1.156,1.156,0,0,0,24.462,55.615Zm5.769,0a1.156,1.156,0,0,0-1.154,1.154v2.308a1.154,1.154,0,1,0,2.308,0V56.769A1.156,1.156,0,0,0,30.231,55.615Zm5.769,0a1.156,1.156,0,0,0-1.154,1.154v2.308a1.154,1.154,0,0,0,2.308,0V56.769A1.156,1.156,0,0,0,36,55.615Zm5.769,0a1.156,1.156,0,0,0-1.154,1.154v2.308a1.154,1.154,0,0,0,2.308,0V56.769A1.156,1.156,0,0,0,41.769,55.615Zm5.769,0a1.156,1.156,0,0,0-1.154,1.154v2.308a1.154,1.154,0,1,0,2.308,0V56.769A1.156,1.156,0,0,0,47.538,55.615Zm5.769,0a1.156,1.156,0,0,0-1.154,1.154v2.308a1.154,1.154,0,1,0,2.308,0V56.769A1.156,1.156,0,0,0,53.308,55.615Zm5.769,0a1.156,1.156,0,0,0-1.154,1.154v2.308a1.154,1.154,0,1,0,2.308,0V56.769A1.156,1.156,0,0,0,59.077,55.615Z" transform="translate(-6 -6)" fill="#26e07f"/>
</svg>
