<svg xmlns="http://www.w3.org/2000/svg" width="60" height="60" viewBox="0 0 60 60">
  <path id="icons8-whatsapp_2_" data-name="icons8-whatsapp (2)" d="M31.988,2A30.028,30.028,0,0,0,2,32,29.623,29.623,0,0,0,7.414,49.16L3.961,59.453a1,1,0,0,0,1.25,1.27l10.7-3.414A30,30,0,1,0,32.063,2l-.016,0Zm0,2h.023a28,28,0,1,1-15.4,51.375,1.017,1.017,0,0,0-.859-.117L6.484,58.219l2.984-8.9a1,1,0,0,0-.141-.91A27.7,27.7,0,0,1,4,32,28.026,28.026,0,0,1,31.988,4Zm1.219,3.949a23.467,23.467,0,0,0-6.781.77,1,1,0,0,0,.508,1.934,21.7,21.7,0,0,1,12.379.4,21.989,21.989,0,0,1,3.016,1.258,1.017,1.017,0,0,0,.453.109,1,1,0,0,0,.453-1.895A23.969,23.969,0,0,0,33.207,7.949Zm13.434,5.039a1,1,0,0,0-.519,1.773,22.674,22.674,0,0,1,1.766,1.59,1,1,0,1,0,1.414-1.41A23.94,23.94,0,0,0,47.375,13.2,1,1,0,0,0,46.641,12.988ZM22.3,17a4.708,4.708,0,0,0-3.422,1.3,9.194,9.194,0,0,0-2.863,6.922c0,3.414,2.02,6.688,3.27,8.4l.137.191c3.77,5.461,8.438,9.547,13.148,11.5,4.172,1.73,6.406,2.191,7.945,2.191a8,8,0,0,0,1.7-.191c2.25-.488,5.051-2.156,5.809-4.293.629-1.781.785-3.684.363-4.418a2.912,2.912,0,0,0-1.441-1.074l-.418-.207c-.047-.019-4.414-2.2-5.25-2.488a2.432,2.432,0,0,0-3.016.918l-.328.457a24.434,24.434,0,0,1-1.609,2.117.669.669,0,0,1-.707.051l-.246-.1a17.781,17.781,0,0,1-5.535-3.461,22.024,22.024,0,0,1-4-4.969c-.043-.074-.055-.117-.062-.121a2.376,2.376,0,0,1,.281-.359,8.359,8.359,0,0,1,.59-.66c.168-.184.336-.363.508-.562l.082-.09a4.993,4.993,0,0,0,.887-1.293,2.506,2.506,0,0,0-.094-2.285c-.117-.254-1.027-2.461-1.629-3.922l-.672-1.625c-.645-1.539-1.355-1.844-2.5-1.891C22.953,17.016,22.645,17,22.3,17Zm0,2c.3,0,.566.016.828.031a2.212,2.212,0,0,1,.406.035c.008,0,.129.094.351.621l.668,1.621c.9,2.18,1.543,3.742,1.68,4.023.121.254.16.426.1.543a3.276,3.276,0,0,1-.605.859l-.086.094c-.148.18-.3.34-.449.5-.23.242-.457.488-.7.777a2.2,2.2,0,0,0-.387,2.746A23.841,23.841,0,0,0,28.5,36.3a19.991,19.991,0,0,0,6.121,3.824l.223.09a2.614,2.614,0,0,0,2.941-.531,25.34,25.34,0,0,0,1.777-2.32l.324-.457c.207-.293.352-.332.711-.2.563.2,3.785,1.77,5.031,2.395l.445.223c.207.1.453.215.543.25a7.273,7.273,0,0,1-.481,2.77c-.473,1.34-2.625,2.637-4.34,3-1.023.219-2.574.551-8.461-1.891-4.363-1.8-8.719-5.637-12.273-10.785-.09-.133-.152-.223-.211-.3-1.062-1.449-2.84-4.309-2.84-7.152a7.326,7.326,0,0,1,2.359-5.594A2.788,2.788,0,0,1,22.3,19ZM9.563,30.906a1,1,0,0,0-.117,2l2.066.121c.02,0,.039,0,.063,0a1,1,0,0,0,.055-2Zm2.582,5.4a.96.96,0,0,0-.394,0l-2.031.414a1,1,0,0,0,.2,1.98,1.233,1.233,0,0,0,.2-.019l2.027-.418a1,1,0,0,0,.777-1.184A.993.993,0,0,0,12.144,36.3Zm1.469,4.961a1.06,1.06,0,0,0-.383.106l-1.852.93a1,1,0,0,0,.449,1.895,1.018,1.018,0,0,0,.445-.105l1.852-.93a1,1,0,0,0,.449-1.344A1.012,1.012,0,0,0,13.613,41.266ZM16.7,45.633a.982.982,0,0,0-.723.254l-1.551,1.375a1,1,0,0,0-.078,1.41,1,1,0,0,0,1.41.082L17.3,47.379a1,1,0,0,0-.606-1.746ZM20.8,49.1a1,1,0,0,0-1.02.434l-1.137,1.73a1,1,0,0,0,.285,1.383,1.012,1.012,0,0,0,.551.168.993.993,0,0,0,.832-.453l1.141-1.731A1,1,0,0,0,20.8,49.1Z" transform="translate(-2 -2)" fill="#26e07f"/>
</svg>
