<svg id="Camada_1" data-name="Camada 1" xmlns="http://www.w3.org/2000/svg" viewBox="0 0 472 276"><defs><style>.cls-1{fill:#fda226;}.cls-2{fill:#fafafa;}.cls-3{fill:#9b9b9b;}.cls-4{fill:#b3b3b3;}.cls-5{fill:#969696;}.cls-6{fill:#a2cae3;}.cls-7{fill:#fff;}.cls-8{opacity:0;}.cls-9{fill:#fbc39d;}.cls-10{fill:#1456a0;}.cls-11{fill:#f9ac7f;}.cls-12{fill:#1d1d1b;}.cls-13{fill:#565656;}.cls-14{fill:#adadad;}</style></defs><title>Prancheta 1</title><path class="cls-1" d="M433.39,111.11H405.05a.91.91,0,0,0-.91.91v21.51a11.33,11.33,0,0,0,11.33,11.33H423a11.33,11.33,0,0,0,11.33-11.33V112A.91.91,0,0,0,433.39,111.11Z"/><path class="cls-1" d="M430,141.15c6.4-3.61,17.37-14.27,15.55-21.77A6.3,6.3,0,0,0,442,115c-4.24-2-10.31.41-11,.68l2,4.21c1.46-.59,5-1.57,6.72-.78a1.62,1.62,0,0,1,.92,1.26c1.07,4.37-7.52,13.58-13.28,16.83Z"/><rect class="cls-2" x="74.39" y="35.71" width="155.55" height="93.02" rx="3.35" ry="3.35"/><path class="cls-3" d="M169.75,140.85a13.59,13.59,0,0,1-.79-4.71v-7.41H136.51v7.41a13.59,13.59,0,0,1-.79,4.71c-.78,2.07-2.26,4.37-5,4.37h44.09C172,145.22,170.53,142.92,169.75,140.85Z"/><rect class="cls-4" x="0.62" y="145.17" width="471.48" height="10.01" rx="2.12" ry="2.12"/><rect class="cls-5" x="81.27" y="155.18" width="10.7" height="95.12"/><rect class="cls-5" x="373.99" y="155.18" width="10.7" height="95.12"/><rect x="74.39" y="20.91" width="155.55" height="93.02" rx="3.35" ry="3.35"/><rect class="cls-2" x="80.41" y="26.09" width="143.71" height="81.72"/><rect class="cls-2" x="237.68" y="35.71" width="155.55" height="93.02" rx="3.35" ry="3.35"/><path class="cls-3" d="M333,140.85a13.59,13.59,0,0,1-.79-4.71v-7.41H299.8v7.41a13.59,13.59,0,0,1-.79,4.71c-.78,2.07-2.26,4.37-5,4.37h44.09C335.3,145.22,333.82,142.92,333,140.85Z"/><rect x="237.68" y="20.91" width="155.55" height="93.02" rx="3.35" ry="3.35"/><rect class="cls-6" x="243.7" y="26.09" width="143.71" height="81.72"/><path class="cls-7" d="M418.45,102.91a10.45,10.45,0,0,0,2.7-1.48,6.07,6.07,0,0,0,1.92-2.2,2.28,2.28,0,0,0-.15-2.32,6.22,6.22,0,0,0-2-1.72A17.43,17.43,0,0,0,418.25,94c-.43-.16-1-.37-1.57-.62s-1.09-.52-1.63-.82a18.66,18.66,0,0,1-5.59-4.91A21,21,0,0,1,406,80.7a18.55,18.55,0,0,1-.5-8.35A15.74,15.74,0,0,1,407,67.81a13.77,13.77,0,0,1,3.38-4.2,14.31,14.31,0,0,1,5-2.69,18.16,18.16,0,0,1,5.24-.81l1.79,0A7.47,7.47,0,0,1,422.59,75a7.64,7.64,0,0,1-3.37-.76,5.13,5.13,0,0,0-1.93-.69,2.67,2.67,0,0,0-2.11,1.58,9.18,9.18,0,0,0-1.13,4.26,12.66,12.66,0,0,0,.83,5,13.22,13.22,0,0,0,2.87,4.49c.33.33.67.65,1,1a13.28,13.28,0,0,0,1.22.92A20.72,20.72,0,0,1,422.67,93a8.34,8.34,0,0,1,2.06,3.11,4.22,4.22,0,0,1,.19,2,4.45,4.45,0,0,1-.73,1.77,8.67,8.67,0,0,1-2.55,2.27,25,25,0,0,1-2.9,1.53.41.41,0,0,1-.55-.2.42.42,0,0,1,.21-.55l0,0Z"/><rect class="cls-2" x="268.81" y="35.71" width="95.73" height="61.79" rx="6.29" ry="6.29"/><rect class="cls-6" x="302.62" y="60.94" width="16.47" height="3.57"/><rect class="cls-6" x="325.71" y="77.02" width="28.05" height="3.57"/><rect class="cls-6" x="339.74" y="85.06" width="14.03" height="3.57"/><rect class="cls-6" x="302.62" y="77.02" width="16.08" height="3.57"/><rect class="cls-6" x="302.62" y="68.98" width="23.09" height="3.57"/><rect class="cls-6" x="302.62" y="85.06" width="9.46" height="3.57"/><polygon class="cls-6" points="318.7 88.63 333.24 88.63 333.25 88.63 333.25 85.06 318.7 85.06 318.7 88.63"/><rect class="cls-6" x="333.24" y="68.98" width="13.7" height="3.57"/><rect class="cls-6" x="325.71" y="60.94" width="14.03" height="3.57"/><rect class="cls-6" x="281.81" y="42.36" width="5.32" height="3.57"/><rect class="cls-6" x="290.42" y="42.36" width="5.32" height="3.57"/><rect class="cls-6" x="299.03" y="42.36" width="5.32" height="3.57"/><rect class="cls-6" x="281.78" y="60.94" width="6.49" height="3.57"/><rect class="cls-6" x="281.78" y="68.98" width="6.49" height="3.57"/><rect class="cls-6" x="281.78" y="77.02" width="6.49" height="3.57"/><rect class="cls-6" x="281.78" y="85.06" width="6.49" height="3.57"/><path class="cls-8" d="M162.63,92.65a.41.41,0,0,0,.43-.08l2.74-2.75,2,3.9a.4.4,0,0,0,.35.21.39.39,0,0,0,.18,0L170,93a.37.37,0,0,0,.19-.23.44.44,0,0,0,0-.3l-1.89-3.63h3.57a.4.4,0,0,0,.27-.69L163,79.86a.37.37,0,0,0-.42-.07.38.38,0,0,0-.24.36V92.29A.39.39,0,0,0,162.63,92.65Z"/><rect class="cls-6" x="94.3" y="43.8" width="22.6" height="11.51"/><rect class="cls-6" x="122.5" y="43.8" width="61.57" height="11.51"/><rect class="cls-6" x="94.3" y="60.94" width="89.77" height="3.32"/><rect class="cls-6" x="94.3" y="69.89" width="89.77" height="3.32"/><rect class="cls-6" x="94.3" y="78.85" width="46.6" height="3.32"/><rect class="cls-6" x="94.3" y="87.8" width="46.6" height="3.32"/><path class="cls-9" d="M247.4,140.78l-82.21,5.27a12.83,12.83,0,0,1-13.62-12h0a12.83,12.83,0,0,1,12-13.63l82.21-5.26a7.83,7.83,0,0,1,8.31,7.31l.64,10A7.82,7.82,0,0,1,247.4,140.78Z"/><path class="cls-10" d="M194.94,92l-40.7,28.63A12.24,12.24,0,0,0,151,137.27h0a12.24,12.24,0,0,0,12.67,5.33c17.91-3.6,59.08-12,58.66-13.43-.32-1.06-4.89-17.36-8.58-30.51A12.24,12.24,0,0,0,194.94,92Z"/><path class="cls-9" d="M222.56,140.78l82.21,5.27a12.83,12.83,0,0,0,13.62-12h0a12.83,12.83,0,0,0-12-13.63l-82.21-5.26a7.83,7.83,0,0,0-8.31,7.31l-.64,10A7.82,7.82,0,0,0,222.56,140.78Z"/><path class="cls-10" d="M275,92l40.7,28.63a12.24,12.24,0,0,1,3.22,16.69h0a12.24,12.24,0,0,1-12.67,5.33c-17.91-3.6-59.08-12-58.66-13.43.32-1.06,4.89-17.36,8.58-30.51A12.24,12.24,0,0,1,275,92Z"/><path class="cls-11" d="M203.12,39.48a8.3,8.3,0,1,0,8,8.29A8.14,8.14,0,0,0,203.12,39.48Z"/><path class="cls-11" d="M263.32,39.48a8.3,8.3,0,1,0,8,8.29A8.14,8.14,0,0,0,263.32,39.48Z"/><path class="cls-9" d="M230.72,92.1l-.06.06c.83.07,1.66.11,2.51.11h0a29.26,29.26,0,0,0,7.35-.94l0-.07c13-3.42,22.67-15.68,22.67-30.28V24.37c0-17.25-13.46-14.5-30.05-14.5h0c-16.6,0-30-2.75-30,14.5V61C203.12,77.37,215.27,90.81,230.72,92.1Z"/><path class="cls-12" d="M257.15,48.94v9.88H246.5s-2.64-7.13-13.33-7.13-13.33,7.13-13.33,7.13H209.18V48.94c0-3.89-3.65-5.18-6.06-5.6V61c0,16.39,12.15,29.83,27.6,31.12l-.06.06c.83.07,1.66.11,2.51.11s1.67,0,2.5-.11l0-.06c15.45-1.29,27.6-14.73,27.6-31.12V43.34C260.8,43.76,257.15,45.05,257.15,48.94Z"/><path class="cls-12" d="M223.83,1.27h-6.91c-7.62,0-13.8,5.4-13.8,12.05V54.73a2.6,2.6,0,0,0,2.55-2.65V25.39s.47-8.48,8.15-8.48h19.4"/><rect class="cls-12" x="204.72" y="15.97" width="58.05" height="50.29"/><path class="cls-12" d="M242.54,1.27h6.91c7.62,0,13.8,5.4,13.8,12.05V54.73a2.6,2.6,0,0,1-2.55-2.65V25.39s-.47-8.48-8.15-8.48h-19.4"/><rect class="cls-12" x="216.17" y="1.25" width="33.33" height="50.29"/><path class="cls-13" d="M249.52,249.23H216.68c-22.93,0-41.52-20.06-41.52-44.79l10.38-89.73c3.57-23.92,25.71-39.28,48.17-39.28h0c22.7,0,45,15.74,48.26,40l9.07,89C291,229.17,272.45,249.23,249.52,249.23Z"/><rect class="cls-14" x="222.93" y="149.96" width="20.76" height="125.47" rx="2.69" ry="2.69"/><rect x="214.23" y="138.86" width="37.18" height="22.21" rx="5.22" ry="5.22"/></svg>